<svg width="346" height="335" viewBox="0 0 346 335" fill="none" xmlns="http://www.w3.org/2000/svg">
<path d="M295.039 165.469C290.676 155.141 286.105 146.211 281.426 138.508C303.086 176.082 286.047 245.773 244.754 245.035C204.113 244.293 166.844 202.957 165.699 201.672C166.586 203.328 167.441 205.008 168.242 206.691C173.234 217.133 176.031 227.574 172.664 235.277C167.414 247.289 153.145 247.289 122.352 248.031C121.012 248.059 119.699 248.117 118.328 248.145C119.582 248.773 175.605 277.586 174.148 302.832C173.492 314.102 173.207 325.059 170.812 334.043C173.434 334.187 176.09 334.242 178.746 334.242C189.617 334.242 200.262 333.219 210.535 331.223C224.062 328.625 236.988 324.375 249.121 318.723C271.039 308.539 290.359 293.734 305.855 275.562C309.68 219.926 295.039 165.469 295.039 165.469Z" fill="#F3E6D8"/>
<path d="M281.426 138.508C250.859 87.9532 216.961 89.6681 216.961 89.6681C183.938 90.4063 155.398 97.1681 144.125 112.176C132.883 127.18 112.562 132.801 112.562 132.801C118.727 133.516 125.094 133.77 131.086 133.77C147.98 133.77 162.164 131.688 162.164 131.688C174.004 130.434 165.16 139.965 152.402 149.719C139.617 159.477 148.637 174.481 158.395 189.488C160.91 193.344 163.418 197.449 165.672 201.645C165.672 201.645 165.672 201.645 165.699 201.672C166.844 202.957 204.113 244.293 244.754 245.035C286.047 245.774 303.086 176.082 281.426 138.508ZM244.043 158.992C239.703 159.676 235.453 159.16 231.484 157.961C226.035 156.367 221.094 153.484 217.359 150.805C212.703 147.492 209.82 144.469 209.82 144.469C209.82 144.469 222.609 123.445 235.367 131.688C246.32 138.766 246.207 148.922 244.043 158.992Z" fill="white"/>
<path d="M225.492 138.191C224.035 138.191 222.836 139.391 222.836 140.82C222.836 142.273 224.035 143.441 225.492 143.441C226.918 143.441 228.113 142.273 228.113 140.82C228.113 139.391 226.918 138.191 225.492 138.191Z" fill="white"/>
<path d="M228.113 140.82C228.113 139.391 226.918 138.191 225.492 138.191C224.035 138.191 222.836 139.391 222.836 140.82C222.836 142.273 224.035 143.441 225.492 143.441C226.918 143.441 228.113 142.273 228.113 140.82ZM216.672 146.867C216.672 140.477 221.863 135.285 228.258 135.285C234.652 135.285 239.844 140.477 239.844 146.867C239.844 152.145 236.305 156.598 231.484 157.961C226.035 156.367 221.094 153.484 217.359 150.805C216.93 149.578 216.672 148.262 216.672 146.867Z" fill="#5D3D1D"/>
<path d="M345.695 167.352C345.695 75.1719 270.953 0.457031 178.746 0.457031C107.996 0.457031 47.5234 44.4453 23.2383 106.555C43.5859 103.531 69.8125 115.973 87.0781 125.699C93.957 129.551 103.09 131.719 112.562 132.801C112.562 132.801 132.883 127.18 144.125 112.176C155.398 97.168 183.938 90.4062 216.961 89.668C216.961 89.668 250.859 87.9531 281.426 138.508C286.105 146.211 290.676 155.141 295.039 165.469C295.039 165.469 309.68 219.926 305.855 275.562C330.684 246.434 345.695 208.66 345.695 167.352Z" fill="#F4B312"/>
<path d="M118.328 248.145C88.418 249.059 54.0586 252.023 38.2773 257.043C38.1914 257.074 38.1055 257.102 37.9922 257.129C66.3008 301.41 114.961 331.449 170.812 334.043C173.207 325.059 173.492 314.102 174.148 302.832C175.605 277.586 119.582 248.773 118.328 248.145Z" fill="#F4B312"/>
<path d="M97.7812 196.562L97.75 196.535C75.4062 187.98 57.7969 180.473 57.7969 180.473C34.4805 169.859 20.7266 159.16 12.707 149.691C12.1094 155.484 11.793 161.391 11.793 167.352C11.793 187.465 15.3594 206.719 21.8672 224.582C47.6953 212.883 86.5938 212.797 97.75 209.742C111.164 206.062 98.3203 196.934 97.7812 196.562Z" fill="#F4B312"/>
<path d="M235.367 131.688C222.609 123.445 209.82 144.469 209.82 144.469C209.82 144.469 212.703 147.492 217.359 150.805C216.93 149.578 216.672 148.262 216.672 146.867C216.672 140.477 221.863 135.285 228.258 135.285C234.652 135.285 239.844 140.477 239.844 146.867C239.844 152.145 236.305 156.598 231.484 157.961C235.453 159.16 239.703 159.676 244.043 158.992C246.207 148.922 246.32 138.766 235.367 131.688Z" fill="#E88623"/>
<path d="M165.699 201.672C165.672 201.645 165.672 201.645 165.672 201.645C163.418 197.449 160.91 193.344 158.394 189.488C148.637 174.481 139.617 159.477 152.402 149.719C165.16 139.965 174.004 130.434 162.164 131.688C162.164 131.688 147.98 133.77 131.086 133.77C125.094 133.77 118.726 133.516 112.562 132.801C103.09 131.719 93.9569 129.551 87.078 125.699C69.8124 115.973 43.5858 103.531 23.2381 106.555C15.3006 107.695 8.25377 111.234 2.97642 118.195C2.97642 118.195 -0.0782647 125.699 4.66002 136.965H4.68736C4.68736 136.965 3.43345 123.242 17.6131 123.5C20.0116 123.5 22.867 123.957 26.2616 124.93C26.2616 124.93 49.5233 128.691 66.0467 150.461C82.5663 172.231 116.359 193.426 141.133 197.734C153.656 199.93 159.851 203.555 160.566 207.375C161.281 211.113 156.797 215.051 147.894 218.02C129.855 224.012 75.8045 226.262 54.0311 235.277C47.1522 238.133 38.5897 241.555 30.4881 244.152C12.8788 249.801 -2.5353 251.481 6.74205 234.539C-14.9181 256.188 21.3553 262.238 37.992 257.129C38.1053 257.102 38.1913 257.074 38.2772 257.043C54.0585 252.023 88.4178 249.059 118.328 248.145C119.699 248.117 121.012 248.059 122.351 248.031C153.144 247.289 167.414 247.289 172.664 235.277C176.031 227.574 173.234 217.133 168.242 206.691C167.441 205.008 166.586 203.328 165.699 201.672ZM122.094 150.461C118.613 150.461 108.082 146.441 109.594 140.961C111.105 135.457 122.094 140.961 122.094 140.961C131.543 143.328 125.605 150.461 122.094 150.461Z" fill="#E88623"/>
<path d="M160.566 207.375C159.851 203.555 153.656 199.93 141.132 197.735C116.359 193.426 82.5661 172.231 66.0465 150.461C49.5231 128.692 26.2614 124.93 26.2614 124.93C22.8669 123.957 20.0114 123.5 17.6129 123.5C3.43326 123.242 4.68716 136.965 4.68716 136.965H4.65982C6.28482 140.82 8.82388 145.098 12.7067 149.692C20.7262 159.16 34.4801 169.86 57.7965 180.473C57.7965 180.473 75.4059 187.981 97.7497 196.535L97.7809 196.563C98.32 196.934 111.164 206.063 97.7497 209.742C86.5934 212.797 47.695 212.883 21.8668 224.582C15.9879 227.231 10.7653 230.512 6.74185 234.539C-2.53549 251.481 12.8786 249.801 30.4879 244.153C38.5895 241.555 47.152 238.133 54.0309 235.278C75.8044 226.262 129.855 224.012 147.894 218.02C156.797 215.051 161.281 211.113 160.566 207.375Z" fill="#926025"/>
<path d="M122.094 150.461C125.605 150.461 131.543 143.328 122.094 140.961C122.094 140.961 111.105 135.457 109.594 140.961C108.082 146.441 118.613 150.461 122.094 150.461Z" fill="#926025"/>
</svg>
