<svg xmlns="http://www.w3.org/2000/svg" width="102" height="124" fill="none" viewBox="0 0 102 124"><path fill="url(#paint0_linear_0_83)" fill-rule="evenodd" d="M60 4L100 44V110C100 117.732 93.732 124 86 124H14C6.26801 124 0 117.732 0 110V18C0 10.268 6.26801 4 14 4H60Z" clip-rule="evenodd"/><g filter="url(#filter0_d_0_83)"><path fill="#fff" fill-opacity=".4" fill-rule="evenodd" d="M100 44H74.7071C66.9751 44 60 37.0249 60 29.2929V4L100 44Z" clip-rule="evenodd"/></g><path fill="#fff" d="M38.554 56.901C28.3115 56.901 20.0134 65.2036 20.0134 75.4416C20.0134 85.6796 28.3159 93.9822 38.554 93.9822C48.792 93.9822 57.099 85.6796 57.099 75.4372H38.554V56.901Z" opacity=".4"/><path fill="#fff" d="M41.4416 54.0089V72.5539H59.9822C59.9866 62.3115 51.6841 54.0089 41.4416 54.0089H41.4416Z"/><defs><filter id="filter0_d_0_83" width="44" height="44" x="58" y="0" color-interpolation-filters="sRGB" filterUnits="userSpaceOnUse"><feFlood flood-opacity="0" result="BackgroundImageFix"/><feColorMatrix in="SourceAlpha" result="hardAlpha" type="matrix" values="0 0 0 0 0 0 0 0 0 0 0 0 0 0 0 0 0 0 127 0"/><feOffset dy="-2"/><feGaussianBlur stdDeviation="1"/><feColorMatrix type="matrix" values="0 0 0 0 0 0 0 0 0 0 0 0 0 0 0 0 0 0 0.0909637 0"/><feBlend in2="BackgroundImageFix" mode="normal" result="effect1_dropShadow_0_83"/><feBlend in="SourceGraphic" in2="effect1_dropShadow_0_83" mode="normal" result="shape"/></filter><linearGradient id="paint0_linear_0_83" x1="0" x2="0" y1="4" y2="124" gradientUnits="userSpaceOnUse"><stop stop-color="#FD7541"/><stop offset="1" stop-color="#EB5F29"/></linearGradient></defs></svg>