<svg xmlns="http://www.w3.org/2000/svg" width="102" height="124" fill="none" viewBox="0 0 102 124"><path fill="url(#paint0_linear_0_107)" fill-rule="evenodd" d="M60 4L100 44V110C100 117.732 93.732 124 86 124H14C6.26801 124 0 117.732 0 110V18C0 10.268 6.26801 4 14 4H60Z" clip-rule="evenodd" opacity=".8"/><g filter="url(#filter0_d_0_107)"><path fill="#fff" fill-opacity=".4" fill-rule="evenodd" d="M100 44H74.7071C66.9751 44 60 37.0249 60 29.2929V4L100 44Z" clip-rule="evenodd"/></g><path fill="#fff" fill-rule="evenodd" d="M62.2245 54H22.2223C20.9949 54 20 54.9951 20 56.2227V91.7791C20 93.006 20.9949 94 22.2223 94H62.2245C63.4519 94 64.4468 93.006 64.4468 91.7791V56.2227C64.4468 54.9951 63.4518 54 62.2245 54ZM57.7796 87.3338H26.6671V76.2232L33.334 69.5558L44.4459 80.6675L51.1126 73.9997L57.7796 80.6675V87.3338ZM48.8905 65.1117C48.8905 67.5664 50.8802 69.5559 53.3349 69.5559C55.7897 69.5559 57.7796 67.5664 57.7796 65.1117C57.7796 62.6562 55.7896 60.6672 53.3349 60.6672C50.8802 60.6672 48.8905 62.6561 48.8905 65.1117Z" clip-rule="evenodd"/><defs><filter id="filter0_d_0_107" width="44" height="44" x="58" y="0" color-interpolation-filters="sRGB" filterUnits="userSpaceOnUse"><feFlood flood-opacity="0" result="BackgroundImageFix"/><feColorMatrix in="SourceAlpha" result="hardAlpha" type="matrix" values="0 0 0 0 0 0 0 0 0 0 0 0 0 0 0 0 0 0 127 0"/><feOffset dy="-2"/><feGaussianBlur stdDeviation="1"/><feColorMatrix type="matrix" values="0 0 0 0 0 0 0 0 0 0 0 0 0 0 0 0 0 0 0.0909637 0"/><feBlend in2="BackgroundImageFix" mode="normal" result="effect1_dropShadow_0_107"/><feBlend in="SourceGraphic" in2="effect1_dropShadow_0_107" mode="normal" result="shape"/></filter><linearGradient id="paint0_linear_0_107" x1="0" x2="0" y1="4" y2="124" gradientUnits="userSpaceOnUse"><stop stop-color="#36D2AD"/><stop offset="1" stop-color="#2DBC9A"/></linearGradient></defs></svg>