<svg xmlns="http://www.w3.org/2000/svg" width="102" height="124" fill="none" viewBox="0 0 102 124"><path fill="url(#paint0_linear_0_90)" fill-rule="evenodd" d="M60 4L100 44V110C100 117.732 93.732 124 86 124H14C6.26801 124 0 117.732 0 110V18C0 10.268 6.26801 4 14 4H60Z" clip-rule="evenodd" opacity=".8"/><g filter="url(#filter0_d_0_90)"><path fill="#fff" fill-opacity=".4" fill-rule="evenodd" d="M100 44H74.7071C66.9751 44 60 37.0249 60 29.2929V4L100 44Z" clip-rule="evenodd"/></g><path fill="#fff" d="M51.0162 75.0894V82.8738L65.4368 91.4752V66.5106L51.0162 75.0894Z" opacity=".99"/><path fill="#fff" fill-rule="evenodd" d="M22.6748 64.0142H52.7876C54.2637 64.0142 55.4446 65.1943 55.4673 66.6468V91.339C55.4673 92.8142 54.2637 93.9943 52.8103 93.9943H22.6748C21.1987 93.9943 20.0178 92.7915 20.0178 91.339V66.6695C20.0178 65.1943 21.2214 64.0142 22.6748 64.0142ZM46.6788 78.9929L31.5088 69.6879V88.2979L46.6788 78.9929Z" clip-rule="evenodd" opacity=".99"/><defs><filter id="filter0_d_0_90" width="44" height="44" x="58" y="0" color-interpolation-filters="sRGB" filterUnits="userSpaceOnUse"><feFlood flood-opacity="0" result="BackgroundImageFix"/><feColorMatrix in="SourceAlpha" result="hardAlpha" type="matrix" values="0 0 0 0 0 0 0 0 0 0 0 0 0 0 0 0 0 0 127 0"/><feOffset dy="-2"/><feGaussianBlur stdDeviation="1"/><feColorMatrix type="matrix" values="0 0 0 0 0 0 0 0 0 0 0 0 0 0 0 0 0 0 0.0909637 0"/><feBlend in2="BackgroundImageFix" mode="normal" result="effect1_dropShadow_0_90"/><feBlend in="SourceGraphic" in2="effect1_dropShadow_0_90" mode="normal" result="shape"/></filter><linearGradient id="paint0_linear_0_90" x1="0" x2="0" y1="4" y2="124" gradientUnits="userSpaceOnUse"><stop stop-color="#627CFE"/><stop offset="1" stop-color="#3042CC"/></linearGradient></defs></svg>