<svg xmlns="http://www.w3.org/2000/svg" width="102" height="124" fill="none" viewBox="0 0 102 124"><path fill="#424242" fill-rule="evenodd" d="M60 4L100 44V110C100 117.732 93.732 124 86 124H14C6.26801 124 0 117.732 0 110V18C0 10.268 6.26801 4 14 4H60Z" clip-rule="evenodd"/><mask id="mask0_0_98" width="100" height="120" x="0" y="4" maskUnits="userSpaceOnUse" style="mask-type:alpha"><path fill="#fff" fill-rule="evenodd" d="M60 4L100 44V110C100 117.732 93.732 124 86 124H14C6.26801 124 0 117.732 0 110V18C0 10.268 6.26801 4 14 4H60Z" clip-rule="evenodd"/></mask><g filter="url(#filter0_d_0_98)" opacity=".4"><path fill="#fff" fill-opacity=".4" fill-rule="evenodd" d="M100 44H74.7071C66.9751 44 60 37.0249 60 29.2929V4L100 44Z" clip-rule="evenodd"/></g><defs><filter id="filter0_d_0_98" width="44" height="44" x="58" y="0" color-interpolation-filters="sRGB" filterUnits="userSpaceOnUse"><feFlood flood-opacity="0" result="BackgroundImageFix"/><feColorMatrix in="SourceAlpha" result="hardAlpha" type="matrix" values="0 0 0 0 0 0 0 0 0 0 0 0 0 0 0 0 0 0 127 0"/><feOffset dy="-2"/><feGaussianBlur stdDeviation="1"/><feColorMatrix type="matrix" values="0 0 0 0 0 0 0 0 0 0 0 0 0 0 0 0 0 0 0.0909637 0"/><feBlend in2="BackgroundImageFix" mode="normal" result="effect1_dropShadow_0_98"/><feBlend in="SourceGraphic" in2="effect1_dropShadow_0_98" mode="normal" result="shape"/></filter></defs></svg>