<svg width="102" height="124" viewBox="0 0 102 124" fill="none" xmlns="http://www.w3.org/2000/svg">
<path fill-rule="evenodd" clip-rule="evenodd" d="M60 4L100 44V110C100 117.732 93.732 124 86 124H14C6.26801 124 0 117.732 0 110V18C0 10.268 6.26801 4 14 4H60Z" fill="url(#paint0_linear_0_67)"/>
<g filter="url(#filter0_d_0_67)">
<path fill-rule="evenodd" clip-rule="evenodd" d="M100 44H74.7071C66.9751 44 60 37.0249 60 29.2929V4L100 44Z" fill="white" fill-opacity="0.4"/>
</g>
<path fill-rule="evenodd" clip-rule="evenodd" d="M59.9632 54.0481V54.0159H20.0134V57.3451H20.0251V63.8886H20.0134V67.2177H20.0251V77.2766H20.016V80.6057H20.0251V90.6646H20.0182V93.9937H20.0251V93.9978H23.3543V93.9937H33.3876V93.9978H36.7168V93.9937H43.3062V93.9978H46.6354V93.9937H56.6458V93.9978H59.9749V54.0481H59.9632ZM56.6458 90.6646V80.6057H46.6354V90.6646H56.6458ZM43.3062 90.6646V80.6057H36.7168V90.6646H43.3062ZM33.3876 90.6646V80.6057H23.3543V90.6646H33.3876ZM23.3543 77.2766H33.3876V67.2177H23.3543V77.2766ZM23.3543 63.8886H56.6458V57.3451H23.3543V63.8886ZM56.6458 67.2177H46.6354V77.2766H56.6458V67.2177ZM43.3062 77.2766V67.2177H36.7168V77.2766H43.3062Z" fill="white"/>
<defs>
<filter id="filter0_d_0_67" x="58" y="0" width="44" height="44" filterUnits="userSpaceOnUse" color-interpolation-filters="sRGB">
<feFlood flood-opacity="0" result="BackgroundImageFix"/>
<feColorMatrix in="SourceAlpha" type="matrix" values="0 0 0 0 0 0 0 0 0 0 0 0 0 0 0 0 0 0 127 0" result="hardAlpha"/>
<feOffset dy="-2"/>
<feGaussianBlur stdDeviation="1"/>
<feColorMatrix type="matrix" values="0 0 0 0 0 0 0 0 0 0 0 0 0 0 0 0 0 0 0.0909637 0"/>
<feBlend mode="normal" in2="BackgroundImageFix" result="effect1_dropShadow_0_67"/>
<feBlend mode="normal" in="SourceGraphic" in2="effect1_dropShadow_0_67" result="shape"/>
</filter>
<linearGradient id="paint0_linear_0_67" x1="0" y1="4" x2="0" y2="124" gradientUnits="userSpaceOnUse">
<stop stop-color="#1ABF74"/>
<stop offset="1" stop-color="#009F57"/>
</linearGradient>
</defs>
</svg>
