<svg xmlns="http://www.w3.org/2000/svg" width="102" height="124" fill="none" viewBox="0 0 102 124"><path fill="url(#paint0_linear_0_53)" fill-rule="evenodd" d="M60 4L100 44V110C100 117.732 93.732 124 86 124H14C6.26801 124 0 117.732 0 110V18C0 10.268 6.26801 4 14 4H60Z" clip-rule="evenodd"/><g filter="url(#filter0_d_0_53)"><path fill="#fff" fill-opacity=".4" fill-rule="evenodd" d="M100 44H74.7071C66.9751 44 60 37.0249 60 29.2929V4L100 44Z" clip-rule="evenodd"/></g><path fill="#fff" fill-rule="evenodd" d="M60 59H20V64H60V59ZM60 69H20V74H60V69ZM20 79H60V84H20V79ZM40 89H20V94H40V89Z" clip-rule="evenodd"/><defs><filter id="filter0_d_0_53" width="44" height="44" x="58" y="0" color-interpolation-filters="sRGB" filterUnits="userSpaceOnUse"><feFlood flood-opacity="0" result="BackgroundImageFix"/><feColorMatrix in="SourceAlpha" result="hardAlpha" type="matrix" values="0 0 0 0 0 0 0 0 0 0 0 0 0 0 0 0 0 0 127 0"/><feOffset dy="-2"/><feGaussianBlur stdDeviation="1"/><feColorMatrix type="matrix" values="0 0 0 0 0 0 0 0 0 0 0 0 0 0 0 0 0 0 0.0909637 0"/><feBlend in2="BackgroundImageFix" mode="normal" result="effect1_dropShadow_0_53"/><feBlend in="SourceGraphic" in2="effect1_dropShadow_0_53" mode="normal" result="shape"/></filter><linearGradient id="paint0_linear_0_53" x1="0" x2="0" y1="4" y2="124" gradientUnits="userSpaceOnUse"><stop stop-color="#5895FF"/><stop offset="1" stop-color="#387CF4"/></linearGradient></defs></svg>